<svg xmlns="http://www.w3.org/2000/svg" id="Ebene_2" data-name="Ebene 2" width="467" height="145.48" viewBox="0 0 467 145.48">
  <g id="Ebene_1-2" data-name="Ebene 1">
    <g>
      <g>
        <g>
          <path d="m84.56,70.79c-5.34,9.34-15.4,15.63-26.92,15.63h-26.66c-17.11,0-30.98-13.88-30.98-31h12.83c0,10.04,8.12,18.18,18.15,18.18,6.76,0,12.65-3.7,15.78-9.17l27.92-48.79C80.03,6.3,90.08.01,101.61.01h26.66c17.11,0,30.98,13.88,30.98,31h-12.82c0-10.03-8.12-18.16-18.16-18.16-6.76,0-12.65,3.69-15.78,9.15l-27.93,48.79h0Z" fill="#1d1d1b" fill-rule="evenodd"></path>
          <path d="m43.9,55.41c0,7.14-5.78,12.92-12.92,12.92s-12.91-5.79-12.91-12.92,5.78-12.91,12.91-12.91c7.14,0,12.92,5.8,12.92,12.91h0Z" fill="#e20613" fill-rule="evenodd"></path>
          <path d="m115.35,31.01c0-7.14,5.78-12.92,12.91-12.92s12.92,5.78,12.92,12.92-5.78,12.91-12.92,12.91-12.91-5.79-12.91-12.91h0Z" fill="#e20613" fill-rule="evenodd"></path>
        </g>
        <g>
          <polygon points="402.83 19.05 371.26 19.05 374.83 .01 467 .01 463.43 19.05 431.75 19.05 417 86.42 388.08 86.42 402.83 19.05" fill="#1d1d1b" fill-rule="evenodd"></polygon>
          <path d="m313.47,28.81c-.76,3.16,1.39,5.76,4.61,5.76h42.2c9.64,0,15.38,8.09,13.59,17.28l-3.68,17.28c-2.12,9.41-11.18,17.28-20.97,17.28h-74.89l3.69-19.16h59.48c3.32,0,6.63-2.6,7.39-5.77l.79-3.87c.74-3.13-1.25-5.76-4.49-5.76h-42.21c-9.53,0-15.68-8.07-13.59-17.28l3.69-17.29c1.83-9.45,11.2-17.28,20.85-17.28h56.09l-3.57,19.16h-40.69c-3.31,0-6.28.71-7.03,3.88l-1.26,5.77Z" fill="#1d1d1b" fill-rule="evenodd"></path>
          <path d="m263.85.01h-74.89l-18.32,86.41h74.89c9.79,0,18.84-7.88,20.97-17.28l2.77-13.02c.93-4.54.17-9.45-3.11-12.91,4.28-3.21,7.41-7.8,8.64-13.02l2.76-12.9C279.35,8.07,273.49.01,263.85.01Zm-23.73,57.61l-.89,3.93c-.76,3.17-3.97,5.71-7.29,5.71h-28.8l3.69-15.4h28.8c3.23-.01,5.23,2.62,4.49,5.76Zm6.93-32.89l-.83,4.08c-.75,3.15-3.59,5.76-6.91,5.76h-28.8l3.69-15.4h28.8c3.24,0,4.8,2.43,4.05,5.56Z" fill="#1d1d1b" fill-rule="evenodd"></path>
        </g>
      </g>
      <g>
        <g>
          <path d="m174.04,138.93l-.44-2.08h-.11c-.73.91-1.45,1.53-2.18,1.86-.72.32-1.63.49-2.71.49-1.45,0-2.58-.37-3.4-1.12-.82-.75-1.23-1.81-1.23-3.18,0-2.95,2.36-4.49,7.07-4.64l2.48-.08v-.91c0-1.15-.25-1.99-.74-2.54s-1.28-.82-2.36-.82c-1.22,0-2.59.37-4.13,1.12l-.68-1.69c.72-.39,1.51-.7,2.36-.92.86-.22,1.72-.33,2.58-.33,1.74,0,3.03.39,3.87,1.16.84.77,1.26,2.01,1.26,3.72v9.96h-1.64Zm-5-1.56c1.38,0,2.46-.38,3.24-1.13.79-.75,1.18-1.81,1.18-3.17v-1.32l-2.21.09c-1.76.06-3.03.34-3.8.82-.78.48-1.17,1.24-1.17,2.26,0,.8.24,1.41.73,1.82.49.42,1.16.63,2.03.63Z" fill="#1d1d1b"></path>
          <path d="m189.95,138.93v-9.44c0-1.19-.27-2.08-.81-2.66-.54-.59-1.39-.88-2.54-.88-1.53,0-2.65.41-3.36,1.24-.71.83-1.07,2.19-1.07,4.09v7.66h-2.21v-14.6h1.8l.36,2h.11c.45-.72,1.09-1.28,1.9-1.67.82-.4,1.73-.59,2.73-.59,1.76,0,3.08.42,3.97,1.27s1.33,2.21,1.33,4.07v9.52h-2.21Z" fill="#1d1d1b"></path>
          <path d="m308.72,139.19c-2.11,0-3.75-.65-4.91-1.95s-1.74-3.14-1.74-5.52.59-4.33,1.76-5.66c1.18-1.33,2.85-2,5.03-2,.7,0,1.4.08,2.1.23s1.25.33,1.65.53l-.68,1.88c-.49-.19-1.02-.36-1.6-.49-.58-.13-1.09-.19-1.53-.19-2.97,0-4.45,1.89-4.45,5.67,0,1.79.36,3.17,1.08,4.13s1.8,1.44,3.22,1.44c1.22,0,2.46-.26,3.74-.79v1.96c-.96.51-2.19.76-3.67.76Z" fill="#1d1d1b"></path>
          <path d="m328.2,131.61c0,2.38-.6,4.24-1.8,5.57-1.2,1.34-2.86,2.01-4.97,2.01-1.31,0-2.46-.31-3.48-.92s-1.79-1.49-2.34-2.64-.83-2.49-.83-4.02c0-2.38.59-4.23,1.78-5.56,1.19-1.33,2.84-1.99,4.95-1.99s3.67.68,4.87,2.04c1.22,1.36,1.82,3.2,1.82,5.51Zm-11.12,0c0,1.86.37,3.29,1.12,4.26s1.84,1.47,3.29,1.47,2.55-.49,3.3-1.46,1.12-2.4,1.12-4.27-.38-3.27-1.12-4.23c-.75-.96-1.86-1.44-3.32-1.44s-2.54.47-3.28,1.43c-.75.95-1.11,2.36-1.11,4.24Z" fill="#1d1d1b"></path>
          <path d="m350.41,138.93v-9.5c0-1.16-.25-2.04-.75-2.62s-1.27-.87-2.32-.87c-1.38,0-2.39.39-3.05,1.19-.66.79-.99,2.01-.99,3.65v8.15h-2.21v-9.5c0-1.16-.25-2.04-.75-2.62s-1.28-.87-2.33-.87c-1.39,0-2.4.42-3.04,1.25s-.97,2.19-.97,4.08v7.66h-2.21v-14.6h1.8l.36,2h.11c.42-.71,1.01-1.27,1.76-1.66.76-.4,1.61-.6,2.55-.6,2.28,0,3.77.83,4.48,2.48h.11c.43-.76,1.07-1.37,1.89-1.81.83-.44,1.77-.67,2.82-.67,1.65,0,2.89.42,3.71,1.27.82.85,1.23,2.21,1.23,4.07v9.52h-2.2Z" fill="#1d1d1b"></path>
          <path d="m363.7,139.19c-.95,0-1.82-.18-2.6-.53-.79-.35-1.44-.89-1.98-1.62h-.16c.11.85.16,1.66.16,2.42v6.01h-2.21v-21.15h1.8l.31,2h.11c.57-.8,1.23-1.38,1.98-1.73.75-.35,1.62-.53,2.6-.53,1.93,0,3.43.66,4.48,1.98,1.05,1.32,1.58,3.18,1.58,5.57s-.54,4.26-1.6,5.59c-1.09,1.33-2.57,1.99-4.47,1.99Zm-.32-13.25c-1.49,0-2.57.41-3.24,1.24-.67.83-1.01,2.14-1.03,3.94v.49c0,2.05.34,3.52,1.03,4.4.68.88,1.78,1.33,3.29,1.33,1.26,0,2.25-.51,2.96-1.53s1.07-2.43,1.07-4.22-.36-3.22-1.07-4.19c-.71-.97-1.72-1.46-3.01-1.46Z" fill="#1d1d1b"></path>
          <path d="m382.32,138.93l-.44-2.08h-.11c-.73.91-1.45,1.53-2.18,1.86-.72.32-1.63.49-2.71.49-1.45,0-2.58-.37-3.4-1.12s-1.23-1.81-1.23-3.18c0-2.95,2.36-4.49,7.07-4.64l2.48-.08v-.91c0-1.15-.25-1.99-.74-2.54s-1.28-.82-2.36-.82c-1.22,0-2.59.37-4.13,1.12l-.68-1.69c.72-.39,1.51-.7,2.36-.92.86-.22,1.72-.33,2.58-.33,1.74,0,3.03.39,3.87,1.16.84.77,1.26,2.01,1.26,3.72v9.96h-1.64Zm-4.99-1.56c1.38,0,2.46-.38,3.24-1.13s1.18-1.81,1.18-3.17v-1.32l-2.21.09c-1.76.06-3.03.34-3.8.82-.78.48-1.16,1.24-1.16,2.26,0,.8.24,1.41.73,1.82.47.42,1.15.63,2.02.63Z" fill="#1d1d1b"></path>
          <path d="m398.23,138.93v-9.44c0-1.19-.27-2.08-.81-2.66s-1.39-.88-2.54-.88c-1.53,0-2.65.41-3.36,1.24-.71.83-1.07,2.19-1.07,4.09v7.66h-2.21v-14.6h1.8l.36,2h.11c.45-.72,1.09-1.28,1.9-1.67.82-.4,1.73-.59,2.73-.59,1.76,0,3.08.42,3.97,1.27s1.33,2.21,1.33,4.07v9.52h-2.21Z" fill="#1d1d1b"></path>
          <path d="m402.4,124.33h2.37l3.2,8.32c.7,1.9,1.14,3.27,1.31,4.12h.11c.12-.45.36-1.23.73-2.32.37-1.1,1.57-4.47,3.62-10.12h2.37l-6.27,16.62c-.62,1.64-1.35,2.81-2.18,3.5s-1.85,1.03-3.06,1.03c-.67,0-1.34-.08-2-.23v-1.77c.49.11,1.03.16,1.64.16,1.52,0,2.6-.85,3.25-2.56l.81-2.08-5.9-14.67Z" fill="#1d1d1b"></path>
        </g>
        <g>
          <polygon points="219.21 139.1 231.93 139.1 231.93 136.22 223.7 136.22 223.7 116.94 219.21 116.94 219.21 139.1" fill="#1d1d1b"></polygon>
          <polygon points="251.43 139.1 255.97 139.1 260.6 131.57 265.13 139.1 270.36 139.1 263.22 127.34 269.68 117.12 265.18 117.12 261.08 123.73 257.07 117.12 251.83 117.12 258.49 127.94 251.43 139.1" fill="#1d1d1b"></polygon>
          <polygon points="274 139.09 278.63 139.1 278.63 117.08 274 117.08 274 139.09" fill="#1d1d1b"></polygon>
          <path d="m296.3,117.47c-.78-.23-3.22-.78-5.56-.78-5.46,0-7.78,2.59-7.78,5.89,0,6.24,10.15,7.5,10.15,11.36,0,1.38-.85,2.55-3.51,2.55s-5.31-1.5-6.64-2.42v4.27c1.1.37,3.61,1.22,6.41,1.22,4.63,0,8.3-1.93,8.3-6.61,0-6.97-10.39-7.59-10.39-11.19,0-1.65,1.6-2.23,3.07-2.23,2.2,0,4.39.7,5.95,1.75v-3.81h0Z" fill="#1d1d1b"></path>
          <path d="m215.06,135.76c-1.38.64-3.16.89-4.58.89-5.79,0-8.19-5.82-8.19-10.42h13.23c.12-4.18-1.26-9.73-8.74-9.73-6.88,0-9.7,4.68-9.7,10.74,0,7.83,4.99,12.22,10.89,12.22,2.75,0,5.17-.81,7.09-1.59v-2.11h0Zm-12.7-12.03c.09-1.24.52-5.26,4.1-5.22,3.2.04,3.84,3.52,3.84,5.22h-7.94Z" fill="#1d1d1b"></path>
          <path d="m249.39,135.76c-1.38.64-3.16.89-4.58.89-5.79,0-8.19-5.82-8.19-10.42h13.23c.12-4.18-1.26-9.73-8.74-9.73-6.88,0-9.7,4.68-9.7,10.74,0,7.83,4.99,12.22,10.88,12.22,2.75,0,5.17-.81,7.09-1.59v-2.11h.01Zm-12.7-12.03c.09-1.24.52-5.26,4.1-5.22,3.2.04,3.84,3.52,3.84,5.22h-7.94Z" fill="#1d1d1b"></path>
        </g>
      </g>
    </g>
  </g>
</svg>