<svg xmlns="http://www.w3.org/2000/svg" preserveAspectRatio="xMaxYMin" viewBox="0 0 170.0789337 31.5604992" width="205" height="38" xml:space="preserve">
  <path d="M115.3295975 22.9902h1.0858994l-1.0371017 4.9862995c-.0839996.4120998-.1268997.7187996-.1268997.9180012 0 .4335995.1717987.7831993.5136032 1.044899.3456955.2656994.7753983.3985004 1.294899.3985004.4141006 0 .7988968-.0956993 1.1542969-.2852001.3554993-.1893997.6368027-.4687004.8438034-.8358994.2070007-.3691998.392601-.955101.5586014-1.7617016l.9355087-4.4648991h1.0839996l-.9980011 4.7558994c-.1699982.8086014-.3926086 1.4511013-.6679993 1.9238014-.2773132.4745998-.6602097.8534985-1.1504135 1.1386986-.4901962.2851009-1.0565872.4277-1.7069931.4277-.6133041 0-1.1445923-.1015987-1.5938034-.3027-.4492035-.2031994-.7851028-.4825001-1.0077896-.8398991-.2246094-.3554001-.335907-.7597008-.335907-1.2109013 0-.2851982.0761948-.7733994.2284927-1.4667988l.9258041-4.4258001"></path>
  <path d="m121.9349976 31.0995998 1.70121-8.1093998h1.0019989l-1.70121 8.1093998h-1.0019989"></path>
  <path d="m127.2240982 30.2870998-.1660004.8183002c-.2402039.0625-.472702.0937996-.6992035.0937996-.3984985 0-.7167969-.0977001-.9532013-.2910004-.1776962-.1504002-.2655945-.3495998-.2655945-.6054993 0-.1268997.0468979-.4258003.1445999-.8906002l.7127991-3.4141006h-.7929001l.1582031-.7772999h.7928925l.3047028-1.4394989 1.1503983-.6893997-.4452972 2.1288986h.9862976l-.1660004.7772999h-.9804001l-.6835938 3.2461014c-.0860062.4120998-.1289062.6602001-.1289062.7402992 0 .1191006.0351028.2089005.1035004.2714005.068306.0644989.1797028.0956993.3339996.0956993.2226028 1e-7 .4199066-.0233993.5937042-.0643997"></path>
  <path d="m128.3842926 31.0995998 1.2324066-5.8789005h.894516l-.2558136 1.2031002c.3065948-.4531002.6053925-.7890987.8945007-1.0058994.2910004-.2187004.5878906-.3260994.8886871-.3260994.2011108 0 .4453125.0702991.738205.2147999l-.4100952.9277992c-.1737976-.125-.3632965-.1856003-.5702972-.1856003-.3516083 0-.7129059.1953011-1.0839996.5859013-.3731079.3906994-.6679993 1.0937996-.8828125 2.1093998l-.4921875 2.3554993h-.9531098"></path>
  <path d="M136.4722137 30.3691006c-.3477173.2987995-.6817169.5156002-1.0019989.6542988-.3223114.1367016-.6641235.205101-1.0293121.205101-.5429993 0-.9804993-.1582012-1.3125-.4785004-.3320007-.3183994-.4980011-.7285004-.4980011-1.2245998 0-.3281994.0741882-.6191998.2245941-.8710995.148407-.2539005.3475952-.455101.5957031-.6093998.2480011-.1523018.5507965-.2637005.9082031-.3281002.2245941-.0449009.6503906-.080101 1.2793121-.1055012.6288757-.0254002 1.0800018-.0937004 1.3514862-.1991997.0782013-.2714996.1172028-.4981003.1172028-.6796989 0-.2305012-.085907-.4121017-.2558136-.5449009-.2324982-.1835995-.5722961-.2754002-1.0175934-.2754002-.4219055 0-.7655945.0918007-1.0332031.2793007-.2675934.1854992-.4628906.4491997-.5839996.7929993l-1.0097961-.0879002c.2070923-.5839996.535202-1.0292988.9824982-1.3398991.4492188-.3105011 1.0135956-.4647999 1.6972198-.4647999.7265778 0 1.3027802.1717987 1.7265778.5194988.3262024.2578011.4882965.5937996.4882965 1.0059013 0 .3143997-.046875.6777-.1386871 1.0917988l-.3261871 1.4589005c-.1035156.4648991-.1562195.8437996-.1562195 1.1348 0 .1835995.0410004.4491997.1230011.7968998h-1.0155945c-.0547028-.1914005-.0938111-.4356002-.1151887-.7304992m.3690796-2.2461014c-.1405945.0547009-.2890778.0957012-.4512024.125-.1581879.0313015-.4257965.0625-.8007965.0957012-.5838928.0508003-.9980011.1171989-1.238205.1952991-.2402954.080101-.421875.205101-.5429993.3770008-.1210938.1737995-.1835938.3652-.1835938.5741997 0 .2793007.0977173.5116997.2910004.6914005.1934052.1796989.4687958.2694988.8280945.2694988.3321075 0 .6524048-.0877991.9571075-.2616997.3085938-.1758003.5487976-.419899.7265167-.7304001.1777803-.3144988.3144838-.7597998.4140779-1.3360003z"></path>
  <path d="m139.2709961 29.0858994 1.0097046-.0585995c0 .2870998.0429993.5331993.1308899.7343998.0879059.2031002.2519989.3691006.4883118.4980011.2383118.1269989.5155945.1913986.8300934.1913986.4414062 0 .773407-.0877991.9940948-.2635994.2207031-.1777992.3301239-.3848.3301239-.625 0-.1739006-.0664215-.3360004-.1973114-.4922009-.1366882-.1542988-.468689-.3456993-.996109-.5723-.527298-.2264996-.8652039-.3866997-1.0117035-.4764996-.2480011-.1523991-.4355011-.3300991-.5605011-.5352001-.1269989-.2031002-.1894989-.4393997-.1894989-.7050991 0-.4629002.1856079-.8612995.5527039-1.1914005.3692017-.3320007.8847961-.4979992 1.5469055-.4979992.7382965 0 1.2987976.169899 1.6835938.5116997.3847961.3397999.5859222.7890987.5996094 1.3437004l-.9804077.0644989c-.0137024-.3515987-.1407013-.6308994-.375-.8358994-.2364044-.2031994-.5684052-.3066998-.9980927-.3066998-.3457031 0-.6133118.0781002-.8047028.2362995-.1914062.1581993-.2871094.3281994-.2871094.5118008 0 .1854992.0820007.3456993.2481079.4842987.1092987.0957012.394516.2422009.8553925.4414005.7637024.3320999 1.2461243.5956993 1.4453125.787199.3183899.3066006.4785919.6796017.4785919 1.1171017 0 .2910995-.0899048.5781994-.2675934.8575001-.1797028.2792988-.453186.5038986-.8184052.6717987-.3690948.1680012-.8007812.2520008-1.2987823.2520008-.6777191 0-1.2559204-.1680012-1.7305145-.5039005-.4764863-.3360003-.7012024-.8808993-.6777039-1.6387003"></path>
  <path d="m149.2534027 28.9550991 1.0098114.1074009c-.2519989.7343998-.6094208 1.2793007-1.0742188 1.6327991-.4629059.3555012-.9922028.5332012-1.5820923.5332012-.6406097 0-1.1582031-.2070007-1.5546875-.6191006-.3984222-.4141006-.5976257-.9883003-.5976257-1.7304993 0-.6406002.1269073-1.2714996.3828125-1.8906002.253891-.6191998.6190948-1.089901 1.093689-1.4141006.4746094-.3202991 1.0176086-.482399 1.6269989-.482399.6309052 0 1.1328125.1777 1.5019073.535099.3710938.3555012.5547028.8262005.5547028 1.4141006l-.9862976.0643997c-.0039062-.3710003-.1133118-.6620998-.3241882-.8710003-.2129211-.2089996-.492218-.3144989-.83992-.3144989-.402298 0-.75.125-1.0467987.3808994-.2949982.2539005-.5274048.6385994-.6934052 1.1562004-.1698761.5156002-.2538757 1.0136986-.2538757 1.4921989 0 .5018997.1112823.8768997.3339996 1.1268997.218689.25.4921875.375.8182831.375.3222961 0 .6347961-.1229992.9317169-.3690987.2948761-.246101.5292816-.6230008.6991882-1.1269013"></path>
  <path d="m151.2279968 31.0995998 1.7012177-8.1093998h1l-.6543121 3.1152c.3671875-.3612995.7089996-.6210003 1.0233917-.7772999.3164062-.1581993.6407013-.2362995.9746094-.2362995.4785919 0 .8495941.1268997 1.1153107.3846989.2655792.2579002.3964844.5957012.3964844 1.017601 0 .2069988-.0624847.5879002-.1856079 1.1386986l-.7597961 3.4668007h-1l.7812958-3.5566998c.1133118-.5135994.1699066-.8397999.1699066-.9726009 0-.1894989-.0664062-.3476982-.1972809-.4687996-.1289215-.1210995-.3164215-.1815987-.5625153-.1815987-.3534851 0-.6932983.0936985-1.0156097.2831993-.3221893.1894989-.5741882.4491997-.7557983.7812996-.1835938.3281002-.3495941.8612995-.5019989 1.5956993l-.5292969 2.5195007h-1.0000002"></path>
  <path d="M161.8472137 30.3691006c-.3477173.2987995-.6817169.5156002-1.0019989.6542988-.3203125.1367016-.6641235.205101-1.0293121.205101-.5429993 0-.9804993-.1582012-1.3125-.4785004-.3320007-.3183994-.4980011-.7285004-.4980011-1.2245998 0-.3281994.0741882-.6191998.2245941-.8710995.1504059-.2539005.3495941-.455101.5957031-.6093998.2480011-.1523018.5507965-.2637005.9082031-.3281002.2225952-.0449009.6503906-.080101 1.2793121-.1055012.6288757-.0254002 1.0800018-.0937004 1.3534851-.1991997.0762024-.2714996.1152039-.4981003.1152039-.6796989 0-.2305012-.085907-.4121017-.2558136-.5449009-.2324982-.1835995-.5703888-.2754002-1.0175934-.2754002-.4219055 0-.7655945.0918007-1.0332031.2793007-.2675934.1854992-.4609985.4491997-.5839996.7929993l-1.0097961-.0879002c.2070923-.5839996.535202-1.0292988.9824982-1.3398991.4492188-.3105011 1.0155945-.4647999 1.6972198-.4647999.7284851 0 1.3027802.1717987 1.7265778.5194988.3262024.2578011.4882965.5937996.4882965 1.0059013 0 .3143997-.046875.6777-.1386871 1.0917988l-.3261871 1.4589005c-.1035156.4648991-.1543121.8437996-.1543121 1.1348 0 .1835995.039093.4491997.1210938.7968998h-1.0137024c-.056595-.1914005-.0957033-.4356002-.1170809-.7304992m.3690796-2.2461014c-.1387024.0547009-.2910004.0957012-.4492035.125-.1620941.0313015-.4296875.0625-.8027954.0957012-.5858917.0508003-1 .1171989-1.238205.1952991-.2402954.080101-.4199982.205101-.5429993.3770008-.1210938.1737995-.1815948.3652-.1815948.5741997 0 .2793007.0957184.5116997.2890015.6914005.1934052.1796989.4707184.2694988.8280945.2694988.3321075 0 .6524048-.0877991.9589996-.2616997.3067017-.1758003.5469055-.419899.7246246-.7304001.1757813-.3144988.3144837-.7597998.4140778-1.3360003z"></path>
  <path d="m164.4799957 31.0995998 1.7010956-8.1093998h1.0019989l-1.7011871 8.1093998h-1.0019074"></path>
  <path d="m167.3529968 31.0995998 1.7012177-8.1093998h1.0018768l-1.7030945 8.1093998h-1"></path>
  <path fill="#f00" d="M89.6010971 1.5781c-.0429993-.0526999-.1074982-.084-.1738892-.084h-3.3554077c-.1035919 0-.1913986.0694001-.2168045.169l-1.0702972 4.5721998h-3.1797028l.9863052-4.4756002c.0136948-.0644-.0039062-.1328-.0469055-.1845-.0429001-.0518-.1054001-.0811-.1718979-.0811h-3.1932907c-.103508 0-.1934052.0703-.2168121.1709l-2.7773972 11.7631998c-.0156021.0664005 0 .1367006.0429993.1894999.0410004.0527.1054993.0839005.1718979.0839005h3.2637024c.0996094 0 .1875-.0683002.2128983-.1640005L81.0795975 8.9277h3.1172028l-1.0019989 4.5024996c-.0155945.0644007 0 .1347008.0429993.1875.0410004.0527.1054077.0839005.1737976.0839005h3.2188034c.1034927 0 .1932983-.0703001.2168045-.1698999l2.7967911-11.7641001c.0157012-.0665001-1e-7-.1358-.0429002-.1895001"></path>
  <path fill="#f00" d="M101.2865982 4.9189c-.2402039-.7147999-.8437042-1.4326-1.4160004-1.5215001-.0117035-.0008998-.0233917-.0019-.035202-.0019h-5.8436966C92.2474976 3.4707 90.8042068 4.5049 90.3042068 6.0293002c-.2910004.9677-.5645065 2.0331998-.7891083 3.1914001-.0428925.2656002-.1211014.5409994-.205101.8348999-.2538986.8926001-.5410004 1.9053001.1328964 2.7553997.5976028.9082003 1.648407.8965006 2.5742035.8848.2441101-.0038996.4726028-.0058994.6913986.0058002.0117111.0019999 6.4883041-.0078001 6.4883041-.0078001.0467987 0 .0956955-.0156002.134697-.0448999l.1211014-.0937004c.0331955-.0253992.058609-.0625.0741959-.1015997.2012024-.5819998.3320999-.7948999.4629059-1.3794003l.0937958-.4198999c.0038986-.0234995.0057983-.0488997.0038986-.0723v.0059004c0-.0117998.0078125-.0430002.0117035-.0644999.0801086-.3564005-.0937042-.4736004-.25-.5088005-.0156021-.0038996-.0312042-.0058002-.0487976-.0058002h-6.7285004c.0741959-.7304993.6171951-3.3242993 1.0975952-4.5849996h2.75l-2.6190948 2.9238c-.0606003.0635004-.0780945.1582003-.0429993.2392998.0370941.0810003.1151962.1348.2050934.1348h3.943306c.0585938 0 .1152954-.0234995.1542969-.0634995l2.3964996-2.3301001c.01371-.0137.0253983-.0283003.035202-.0449004.1542969-.2568998.2265091-.5683999.2831955-.8399.130806-.4471999.1367035-1.0233999.0117035-1.5243998"></path>
  <path fill="#f00" d="M109.4642944 3.4540999c-.0370865-.0507999-.0995941-.0820999-.1620865-.0849998-.1406097-.0068002-3.1640015-.1699002-4.5215073.3936-1.9921036.7831998-2.3710022 2.5321999-2.8496017 4.7460995l-.0078049.0420008-1.1014938 4.8793993c-.0137024.0644007.0018997.1367006.0429001.1875.0429993.0527.1055069.0839005.1738968.0839005h3.3163986c.1054001 0 .1992111-.0761003.2187042-.1815996.4491959-2.3452005 1.2792969-6.4165006 1.6718979-7.1021004l2.2070007-.0117002c.1426086-.0096998.3731003-.0879002.433609-.3231997.3300934-1.2520003.6191864-2.4336002.6210861-2.4483001.0137025-.0634002-.0018996-.1289002-.0429992-.1806003"></path>
  <path fill="#f00" d="M116.3373947 3.4540999c-.0410004-.0507999-.0995941-.0820999-.1641006-.0849998-.1405945-.0068002-3.1660004-.1699002-4.5194931.3936-1.9961014.7831998-2.3731003 2.5321999-2.851593 4.7460995l-.0097122.0420008-1.1016006 4.8793993c-.0155945.0644007.0019989.1367006.044899.1875.0430069.0527.1055069.0839005.1739044.0839005h3.3163986c.1054001 0 .1992035-.0761003.2186966-.1815996.4492035-2.3452005 1.2793045-6.4165006 1.6738052-7.1021004L115.3237 6.4062c.1425934-.0096998.375-.0879002.4356003-.3231997.3299942-1.2520003.6171951-2.4336002.6210938-2.4483001.0097045-.0634002-.0038987-.1289002-.0429994-.1806003"></path>
  <path fill="#f00" d="M133.4174957 4.7255998c-.3047028-.7177997-1.0077972-1.2245998-1.8847961-1.3564997-.0077972-.0019002-.0176086-.0019002-.0254059-.0029001-1.378891-.0488-2.8925934-.0253999-4.1035004-.0009999-.7362976.0137-1.4960938.0283-2.2753983.0263999l-.1211014-.0224998c-.0116959-.0019002-.0214996-.0019002-.0331955-.0029001-1.378891-.0488-2.6328049-.0253999-3.8457031-.0009999-1.205101.0234001-2.455101.0479-3.8241882-.0019-.0625076-.0020001-.125.0244-.1679993.0711999l-.148407.1592c-.0235062.0244-.0430069.0567-.0508041.0908-.4336014 1.5557001-2.2714996 9.6636-2.2891006 9.7456999-.0156021.0664005 0 .1367006.0429993.1894007.0410004.0507994.1054993.0839996.1719055.0839996h3.2030945c.1035004 0 .1913986-.0703001.2168045-.1680002l1.7460938-7.0199995c.0918045-.0586004.1660004-.1113.2129059-.1543002.0155945 0 .0331955 0 .0468979.0009999.0175018.0009999 1.8711014-.0039001 2.4608994-.0068998L121.1772081 13.4302c-.0117111.0664005.0019989.1367006.0449982.1894007.0428925.0527.1053925.0839996.1717911.0839996h3.427803c.1014938 0 .1914062-.0703001.214798-.1680002l1.7695007-7.1049995c.0019989-.0087004.0038986-.0185003.0058975-.0273004.0019989-.0126996.0058975-.0272999.0058975-.0409999h.0039062c.0194931.0009999 2.3534927-.0039001 2.6717911-.0049l-1.6600952 7.0707998c-.017601.0644999 0 .1348.0410004.1894999.0410004.0527.1054993.0859003.1737976.0859003h3.4492035c.101593 0 .1914978-.0703001.2149048-.1680002.0098114-.0409994.9804993-3.8636999 1.3886871-5.7601995.046814-.2735.113205-.5371003.1875-.8145003.185501-.7080002.3769072-1.4404001.1289061-2.2353005"></path>
  <path fill="#f00" d="M145.1166992 4.2870998c-.597702-.9101999-1.6484833-.8964999-2.5742035-.8848-.2422027.0029002-.4707031.0059002-.6914062-.0067999-.011795 0-6.6191864.0067999-6.6191864.0067999-.0488129 0-.0976105.0166001-.1346893.0479002l-.1211243.0918c-.0312958.0263-.0585938.0614998-.0722961.1034999-.2050934.582-.3358917.9266999-.464798 1.5137002l-.0899048.4159999c-.0077972.0223999-.0097961.0468001-.0058746.0703001v-.0059004c-.0019226.0108004-.0078125.0430002-.0136261.0655003-.0780945.3564.0918121.4726.25.5086999.0176239.0039001.0312042.0049.0488129.0049h6.9804993c.0293121.0019999.0643921.0039001.0995941.0068998-.0899048.7255001-.9649048 3.3418002-1.4472809 4.5800004h-2.8828125l2.7519989-2.9248004c.0625-.0643997.0780945-.1581998.0428925-.2401996-.0370789-.0820003-.1152039-.1338-.2050781-.1338h-3.8144226c-.0585785 0-.1132965.0225-.1562958.0634999l-2.5252838 2.3290997c-.0137177.0145998-.02742.0293007-.0372162.0459003-.1502991.2558002-.2207031.5557003-.2792969.8397999-.1327972.4483004-.1386108.8945999-.0136108 1.3936005.2383118.7163.9746094 1.4310999 1.5488129 1.5209999.0116882.0018997.0214996.0038996.0351868.0038996h8.6660004c.0996094 0 .1894073-.0684004.2148132-.1660004.0507965-.1875 1.2304993-4.5873995 1.4375-5.6596994.0429993-.2656002.1210938-.5420003.2050934-.835.2519987-.8934999.5410001-1.9052-.1327975-2.7558003"></path>
  <path fill="#f00" d="M157.8060913 4.7255998c-.3026886-.7177997-1.0077972-1.2245998-1.8827972-1.3564997-.0077972-.0019002-.0175934-.0019002-.0253906-.0029001-1.3789062-.0488-2.746109-.0253999-4.0703125-.0009999-1.3143768.0234001-2.6757965.0479-4.0428925-.0019-.0644836-.0020001-.1269989.0244-.1699982.0711999l-.148407.1592c-.0253906.0244-.0429993.0567-.0527039.0908-.4335938 1.5557001-2.2714996 9.6636-2.289093 9.7456999-.0155945.0664005 0 .1367006.0429993.1894007.0410004.0507994.1054077.0839996.1737976.0839996h3.4277039c.101593 0 .1894989-.0703001.2149048-.1680002l1.7695007-7.1049995c0-.0087004.0019989-.0185003.003891-.0273004.0019989-.0126996.0039215-.0272999.0077972-.0409999h.0019989c.0176086.0009999 2.5976105-.0039001 2.9375-.0049L152.044403 13.4282c-.0156097.0644999-.0019073.1348.0410004.1894999.0429993.0527.1074982.0859003.1758118.0859003h3.6269989c.0995789 0 .1893768-.0703001.2147827-.1680002.0117035-.0409994.9804993-3.8636999 1.3887024-5.7601995.0448914-.2735.1152039-.5371003.1875153-.8145003.1835785-.7080001.3788757-1.4404.1268768-2.2353004"></path>
  <path fill="#f00" d="M169.9603882 4.7255998c-.3046875-.7177997-1.0096893-1.2245998-1.8866882-1.3564997-.0057983-.0019002-.0156097-.0019002-.0214844-.0029001-1.3828125-.0488-2.75-.0253999-4.0703125-.0009999-1.3164062.0234001-2.6776886.0479-4.0449066-.0019-.0644989-.0020001-.1269989.0244-.1699066.0711999l-.1484985.1592c-.0253754.0244-.0410004.0567-.0526886.0908-.433609 1.5557001-2.2695007 9.6636-2.2891083 9.7456999-.0155792.0664005 0 .1367006.0429993.1894007.0410004.0507994.1074219.0839996.1719055.0839996h3.4277039c.1035004 0 .1894989-.0703001.2168121-.1680002l1.7675781-7.1049995c.0019073-.0087004.0039062-.0185003.0059052-.0273004 0-.0126996.003891-.0272999.0077972-.0409999h.0019073c.0175934.0009999 2.5976868-.0039001 2.9375-.0049L164.1967926 13.4282c-.0157013.0644999 0 .1348.0410004.1894999.0429077.0527.1074219.0859003.1757965.0859003h3.6269073c.101593 0 .1894989-.0703001.2149048-.1680002.0096893-.0409994.9803925-3.8636999 1.3885956-5.7601995.0449982-.2735.1152954-.5371003.1875-.8145003.1835937-.7080001.378891-1.4404.128891-2.2353004"></path>
  <path d="M39.1639977.9297c-.2352982.124-18.1834984 10.3515005-19.9588985 11.2685003L0 12.2031002v-1.5644999l18.5809994-.0078001C37.4638977-.003 18.5819988 10.6308002 37.4638977 0c0 0 .4375.2275 1.7001.9297"></path>
  <path d="m40.9325981 2.1289001 1.6581993.9326c-1.2333984.6708998-21.2343979 11.8666997-21.8866977 12.2064995H.0068v-1.5643997h20.0634995L40.9325981 2.1289001"></path>
  <path d="M68.3823013 17.7558002c-6.2030945 3.4629002-7.7988014 4.4160995-20.6909027 11.6602001-1.1474991-.6543007-.6240005-.3516006-1.6875-.9375 0-.1504002 20.8744965-11.7930012 21.7475967-12.2891006h102.2792053v1.5664005H68.3823013"></path>
  <path d="m170.0482941 20.8320007-100.1776963-.0039005c-5.4472961 3.0312996-13.2440987 7.7754002-18.7113876 10.732399l-1.696312-.9432983L69.253395 19.2616997l100.794899-.0077991v1.5781001"></path>
  <path d="M44.3076096 4.246069 23.6014957 15.7289791l20.7061138 11.6049805 20.6411133-11.6049805L44.3076096 4.246069zm7.7543945 16.8378906h-2.5083008c-.0664062 0-.1289062-.0292969-.1699219-.0761719-.0440063-.0526733-.0625-.1171875-.0507812-.1796875l.6356812-4.0215454h-2.1317749l-1.1826172 4.1153564c-.0274048.0957031-.1152954.1620483-.2167969.1620483h-3.5263672c-.0996094 0-.1875-.0644531-.2148438-.1582031l-1.1630859-3.8183594-1.0233765 3.8085938c-.0245361.0996094-.1143188.1679688-.2167969.1679688h-3.397522c-.102478 0-.1914062-.0683594-.2177734-.1660767l-2.4598999-9.4716187c-.0176392-.0654907-.0030518-.1358032.0409546-.1884766.0419922-.0546875.1064453-.0858765.1766968-.0858765h2.6016235c.1016235 0 .1903687.0663452.2167969.1620483l1.4072266 5.0722046 1.131897-5.0653687c.0223999-.0996094.1131592-.1688843.2157593-.1688843h2.8008423c.0996094 0 .1875.0633545.2147827.1551514L44.5692673 16.3906l1.2998047-5.0518188c.0254517-.0985718.1152954-.1668701.2178345-.1668701h2.4823608c.0655518 0 .1280518.0291748.1709595.078064.0419922.0498047.0605469.1162109.0487671.180603l-.5047607 2.9331055h2.3309937l.8964844-3.0355835c.0272827-.0928345.1142578-.156189.2144165-.156189h2.3866577c.0682983 0 .1307983.0291748.1738281.0819702.0409546.0507812.0585938.1190796.0448608.1846313l-2.0487671 9.4715576c-.0214845.1016238-.1132813.1738894-.2207032.1738894z"></path>
</svg>