<?xml version="1.0" encoding="UTF-8"?>
<svg xmlns="http://www.w3.org/2000/svg" viewBox="0 0 169.77 44.01">
  <defs>
    <style>
      .cls-1 {
        fill: #fff;
      }

      .cls-2 {
        fill: #d70a32;
      }

      .cls-3 {
        fill: none;
        stroke: #606060;
        stroke-miterlimit: 10;
        stroke-width: 2px;
      }

      .cls-4 {
        fill: #73787d;
      }

      .cls-5 {
        fill: #595a5c;
      }
    </style>
  </defs>
  <g id="Capa_0_Imagen" data-name="Capa 0 Imagen">
    <path class="cls-3" d="m169.57,25.17H8.83c-4.32,0-7.83-3.5-7.83-7.83V.74"/>
  </g>
  <g id="Digital_Authoring" data-name="Digital Authoring">
    <g>
      <path class="cls-5" d="m9.16,4.65h5.28c1.19,0,2.1.09,2.72.27.84.25,1.56.69,2.16,1.32s1.05,1.4,1.37,2.32.47,2.04.47,3.38c0,1.18-.15,2.19-.44,3.05-.36,1.04-.87,1.88-1.53,2.53-.5.49-1.18.87-2.03,1.14-.64.2-1.49.3-2.56.3h-5.44V4.65Zm2.89,2.42v9.48h2.16c.81,0,1.39-.05,1.75-.14.47-.12.86-.32,1.17-.6s.56-.74.76-1.38.29-1.52.29-2.62-.1-1.96-.29-2.55-.47-1.05-.82-1.39-.8-.56-1.34-.67c-.4-.09-1.19-.14-2.37-.14h-1.3Z"/>
      <path class="cls-5" d="m23.59,7.19v-2.54h2.74v2.54h-2.74Zm0,11.78v-10.37h2.74v10.37h-2.74Z"/>
      <path class="cls-5" d="m28.9,19.65l3.13.38c.05.36.17.62.36.75.26.2.67.29,1.23.29.72,0,1.25-.11,1.61-.32.24-.14.42-.37.55-.69.08-.23.13-.65.13-1.26v-1.51c-.82,1.12-1.86,1.68-3.11,1.68-1.39,0-2.5-.59-3.31-1.77-.64-.93-.96-2.09-.96-3.48,0-1.74.42-3.07,1.25-3.98s1.88-1.38,3.12-1.38,2.34.56,3.17,1.69v-1.46h2.57v9.31c0,1.22-.1,2.14-.3,2.74s-.48,1.08-.85,1.43c-.36.35-.85.62-1.46.81s-1.38.29-2.31.29c-1.76,0-3-.3-3.74-.9-.74-.6-1.1-1.37-1.1-2.29,0-.09,0-.2,0-.33Zm2.45-6.08c0,1.1.21,1.91.64,2.42s.95.77,1.58.77c.67,0,1.24-.26,1.7-.79s.69-1.3.69-2.33-.22-1.87-.66-2.39-1-.78-1.68-.78-1.2.26-1.63.77-.64,1.29-.64,2.34Z"/>
      <path class="cls-5" d="m41.37,7.19v-2.54h2.74v2.54h-2.74Zm0,11.78v-10.37h2.74v10.37h-2.74Z"/>
      <path class="cls-5" d="m51.68,8.59v2.19h-1.88v4.18c0,.85.02,1.34.05,1.48s.12.26.24.35.28.14.46.14c.25,0,.62-.09,1.1-.26l.23,2.13c-.64.27-1.36.41-2.17.41-.49,0-.94-.08-1.34-.25s-.69-.38-.87-.64-.31-.62-.39-1.07c-.06-.32-.09-.96-.09-1.93v-4.52h-1.26v-2.19h1.26v-2.06l2.75-1.6v3.66h1.88Z"/>
      <path class="cls-5" d="m55.63,11.76l-2.49-.45c.28-1,.76-1.74,1.45-2.23s1.7-.72,3.05-.72c1.22,0,2.14.15,2.73.43s1.02.66,1.26,1.1.37,1.26.37,2.46l-.03,3.2c0,.91.04,1.58.13,2.02s.25.9.49,1.39h-2.71c-.07-.18-.16-.45-.26-.81-.05-.16-.08-.27-.1-.32-.47.46-.97.8-1.5,1.03s-1.1.34-1.71.34c-1.07,0-1.91-.29-2.52-.87s-.92-1.31-.92-2.2c0-.59.14-1.11.42-1.57s.67-.81,1.18-1.05,1.23-.46,2.18-.64c1.28-.24,2.17-.47,2.67-.67v-.27c0-.53-.13-.9-.39-1.13s-.75-.34-1.47-.34c-.49,0-.87.1-1.14.29s-.49.53-.66,1.01Zm3.67,2.23c-.35.12-.91.26-1.67.42s-1.26.32-1.49.48c-.36.25-.54.58-.54.97s.14.72.43,1,.65.42,1.09.42c.49,0,.97-.16,1.42-.49.33-.25.55-.55.65-.91.07-.23.11-.68.11-1.34v-.55Z"/>
      <path class="cls-5" d="m64.71,18.96V4.65h2.74v14.32h-2.74Z"/>
      <path class="cls-5" d="m88.01,18.96h-3.14l-1.25-3.25h-5.72l-1.18,3.25h-3.07l5.58-14.32h3.06l5.73,14.32Zm-5.32-5.66l-1.97-5.31-1.93,5.31h3.91Z"/>
      <path class="cls-5" d="m96.35,18.96v-1.55c-.38.55-.87.99-1.49,1.31s-1.26.48-1.95.48-1.32-.15-1.88-.46-.95-.74-1.2-1.29-.37-1.32-.37-2.29v-6.56h2.74v4.77c0,1.46.05,2.35.15,2.68s.29.59.55.78.61.29,1.02.29c.47,0,.89-.13,1.26-.39s.62-.58.76-.96.21-1.31.21-2.8v-4.38h2.74v10.37h-2.55Z"/>
      <path class="cls-5" d="m106.49,8.59v2.19h-1.88v4.18c0,.85.02,1.34.05,1.48s.12.26.24.35.28.14.46.14c.25,0,.62-.09,1.1-.26l.23,2.13c-.64.27-1.36.41-2.17.41-.5,0-.94-.08-1.34-.25s-.69-.38-.87-.64-.31-.62-.39-1.07c-.06-.32-.09-.96-.09-1.93v-4.52h-1.26v-2.19h1.26v-2.06l2.75-1.6v3.66h1.88Z"/>
      <path class="cls-5" d="m111.13,4.65v5.26c.89-1.04,1.94-1.55,3.17-1.55.63,0,1.2.12,1.71.35s.89.53,1.15.9.43.77.53,1.21.14,1.13.14,2.06v6.08h-2.74v-5.48c0-1.09-.05-1.78-.16-2.07s-.29-.53-.55-.7-.59-.26-.99-.26c-.46,0-.86.11-1.22.33s-.62.56-.79,1-.25,1.1-.25,1.98v5.2h-2.74V4.65h2.74Z"/>
      <path class="cls-5" d="m119.98,13.63c0-.91.22-1.79.67-2.65s1.09-1.5,1.91-1.95,1.74-.67,2.76-.67c1.57,0,2.85.51,3.86,1.53s1.5,2.31,1.5,3.86-.51,2.87-1.52,3.9-2.29,1.55-3.82,1.55c-.95,0-1.86-.21-2.72-.64s-1.52-1.06-1.97-1.89-.67-1.84-.67-3.03Zm2.81.15c0,1.03.24,1.82.73,2.36s1.09.82,1.81.82,1.32-.27,1.8-.82.73-1.34.73-2.38-.24-1.8-.73-2.34-1.09-.82-1.8-.82-1.32.27-1.81.82-.73,1.33-.73,2.36Z"/>
      <path class="cls-5" d="m135.46,18.96h-2.74v-10.37h2.55v1.47c.44-.7.83-1.16,1.18-1.38s.74-.33,1.19-.33c.62,0,1.23.17,1.81.52l-.85,2.39c-.46-.3-.89-.45-1.29-.45s-.71.11-.98.32-.48.59-.63,1.15-.23,1.71-.23,3.48v3.2Z"/>
      <path class="cls-5" d="m140.61,7.19v-2.54h2.74v2.54h-2.74Zm0,11.78v-10.37h2.74v10.37h-2.74Z"/>
      <path class="cls-5" d="m155.6,18.96h-2.74v-5.29c0-1.12-.06-1.84-.18-2.17s-.31-.58-.57-.77-.58-.27-.95-.27c-.48,0-.9.13-1.28.39s-.64.61-.78,1.04-.21,1.22-.21,2.38v4.7h-2.74v-10.37h2.55v1.52c.91-1.17,2.04-1.76,3.42-1.76.61,0,1.16.11,1.66.33s.88.5,1.14.83.44.72.54,1.15.15,1.04.15,1.85v6.45Z"/>
      <path class="cls-5" d="m158.13,19.65l3.13.38c.05.36.17.62.36.75.26.2.67.29,1.23.29.72,0,1.25-.11,1.61-.32.24-.14.42-.37.55-.69.08-.23.13-.65.13-1.26v-1.51c-.82,1.12-1.86,1.68-3.11,1.68-1.39,0-2.5-.59-3.31-1.77-.64-.93-.96-2.09-.96-3.48,0-1.74.42-3.07,1.25-3.98s1.88-1.38,3.12-1.38,2.34.56,3.17,1.69v-1.46h2.57v9.31c0,1.22-.1,2.14-.3,2.74s-.49,1.08-.85,1.43c-.36.35-.85.62-1.46.81s-1.38.29-2.31.29c-1.76,0-3-.3-3.74-.9-.74-.6-1.1-1.37-1.1-2.29,0-.09,0-.2,0-.33Zm2.45-6.08c0,1.1.21,1.91.64,2.42s.95.77,1.58.77c.67,0,1.24-.26,1.7-.79s.69-1.3.69-2.33-.22-1.87-.66-2.39-1-.78-1.68-.78-1.2.26-1.63.77-.64,1.29-.64,2.34Z"/>
    </g>
    <g>
      <g>
        <path class="cls-4" d="m131.69,43.47c-.09-.03-.16-.1-.2-.2-.04.05-.16.19-.42.19-.29,0-.47-.14-.47-.41,0-.33.27-.5.74-.5.03,0,.06,0,.1,0v-.09c0-.17-.02-.28-.23-.28-.15,0-.33.07-.45.16l-.12-.19c.14-.08.33-.19.61-.19.21,0,.37.08.42.23.02.06.03.11.03.25,0,.1-.01.32-.01.52s0,.27.12.34l-.14.18Zm-.33-.76c-.2,0-.32.04-.38.1-.06.06-.08.11-.08.21,0,.16.08.25.23.25.12,0,.24-.07.31-.19v-.36s-.06,0-.08,0Z"/>
        <path class="cls-4" d="m133.63,42.34c-.08-.07-.16-.11-.24-.11-.17,0-.25.15-.25.49,0,.19.03.3.08.36.04.05.11.08.17.08.09,0,.17-.04.27-.12l.02-.02.18.23c-.06.06-.08.08-.14.11-.1.06-.22.09-.36.09-.41,0-.65-.28-.65-.75,0-.33.13-.55.31-.67.1-.06.24-.11.37-.11.1,0,.21.02.29.06.06.03.08.05.15.1l-.19.25Z"/>
        <path class="cls-4" d="m135.16,42.15c.12.14.17.29.17.53,0,.25-.06.42-.19.56-.11.12-.26.2-.49.2-.41,0-.67-.29-.67-.75s.27-.76.67-.76c.21,0,.38.07.51.22Zm-.7.21c-.03.08-.04.18-.04.32,0,.17.02.29.05.36.03.08.12.12.2.12.17,0,.24-.15.24-.49,0-.2-.03-.32-.08-.39-.04-.05-.1-.08-.17-.08-.09,0-.17.06-.2.15Z"/>
        <path class="cls-4" d="m136.8,43.25c-.17.14-.35.2-.56.2-.43,0-.71-.29-.71-.75,0-.26.06-.43.19-.57.12-.13.27-.2.47-.2.17,0,.34.06.43.15.14.14.2.33.2.63v.09h-.86c0,.23.11.36.31.36.13,0,.26-.05.38-.14l.15.23Zm-.39-.72v-.02c0-.11-.01-.16-.05-.22-.04-.06-.09-.08-.17-.08-.15,0-.23.11-.23.31h0s.45,0,.45,0Z"/>
        <path class="cls-4" d="m138.01,42.31c-.15-.07-.26-.1-.37-.1s-.19.06-.19.14c0,.07.05.11.19.15l.18.05c.18.05.24.1.3.16.06.07.08.15.08.25,0,.3-.26.5-.64.5-.18,0-.39-.06-.6-.17l.14-.28c.12.07.33.16.5.16.11,0,.2-.07.2-.16,0-.1-.07-.15-.23-.18l-.18-.03c-.1-.02-.22-.08-.27-.15s-.08-.17-.08-.26c0-.28.23-.47.58-.47.24,0,.4.07.53.14l-.13.25Z"/>
        <path class="cls-4" d="m138.94,41.57c0,.13-.11.23-.24.23s-.24-.1-.24-.23.11-.23.25-.23.24.1.24.23Zm-.05.36v1.48h-.39v-1.42l.39-.06Z"/>
        <path class="cls-4" d="m139.48,42.02c.15-.06.27-.09.41-.09.25,0,.42.09.48.25.02.06.03.1.03.26v.49s0,.02,0,.03c0,.16.03.22.14.3l-.21.23c-.09-.04-.17-.1-.21-.18-.03.03-.06.06-.09.08-.07.05-.18.08-.3.08-.33,0-.51-.16-.51-.45,0-.34.24-.5.72-.5.03,0,.06,0,.09,0v-.06c0-.16-.03-.21-.18-.21-.12,0-.27.06-.43.16l-.17-.27c.08-.05.13-.08.24-.12Zm.51.76c-.27,0-.37.05-.37.22,0,.11.07.19.17.19.07,0,.15-.04.2-.1v-.31s-.01,0-.01,0Z"/>
        <path class="cls-4" d="m142.01,43.44c-.21,0-.37-.07-.47-.21-.1-.13-.14-.3-.14-.51,0-.32.1-.5.24-.62.11-.09.24-.14.38-.14.16,0,.29.05.4.15l-.14.18c-.1-.08-.16-.11-.26-.11-.11,0-.21.06-.26.15-.05.1-.07.24-.07.43s.04.33.12.41c.05.05.12.09.21.09.11,0,.22-.05.3-.15l.13.16c-.14.13-.26.18-.45.18Z"/>
        <path class="cls-4" d="m143.31,43.45c-.39,0-.63-.29-.63-.75s.24-.75.63-.75c.43,0,.64.33.64.76,0,.45-.25.73-.64.73Zm0-1.29c-.23,0-.33.16-.33.52,0,.43.11.58.34.58.2,0,.33-.15.33-.52,0-.44-.13-.57-.34-.57Z"/>
        <path class="cls-4" d="m145.9,43.41v-1.01c0-.16-.05-.22-.18-.22-.14,0-.23.08-.34.19v1.04h-.26v-1.01c0-.16-.05-.22-.18-.22-.1,0-.21.05-.34.16v1.06h-.26v-1.04c0-.2-.01-.25-.05-.35l.25-.06s.05.12.05.2c.13-.13.27-.2.41-.2s.27.07.35.22c.15-.15.3-.22.45-.22.23,0,.37.14.37.4v1.06h-.27Z"/>
        <path class="cls-4" d="m147.28,43.44c-.13,0-.26-.05-.38-.15,0,.05,0,.11,0,.16v.5l-.25.05v-1.66c-.01-.17-.02-.26-.04-.35l.26-.04s.02.09.02.2c.11-.13.26-.2.41-.2.3,0,.55.23.55.72,0,.44-.2.76-.57.76Zm-.02-1.26c-.13,0-.25.06-.35.17v.72c.09.09.21.16.31.16.24,0,.35-.18.35-.52s-.08-.53-.31-.53Z"/>
        <path class="cls-4" d="m149.21,43.47c-.09-.03-.16-.1-.2-.2-.04.05-.16.19-.42.19-.29,0-.47-.14-.47-.41,0-.33.27-.5.75-.5.03,0,.06,0,.1,0v-.09c0-.17-.02-.28-.23-.28-.15,0-.33.07-.45.16l-.12-.19c.14-.08.33-.19.61-.19.21,0,.37.08.42.23.02.06.03.11.03.25,0,.1-.01.32-.01.52s0,.27.12.34l-.14.18Zm-.33-.76c-.2,0-.32.04-.38.1-.06.06-.08.11-.08.21,0,.16.08.25.23.25.12,0,.24-.07.31-.19v-.36s-.06,0-.08,0Z"/>
        <path class="cls-4" d="m150.53,43.41v-.95c0-.13-.01-.17-.05-.22-.03-.04-.08-.06-.15-.06-.11,0-.26.08-.36.18v1.05h-.26v-1.05c0-.17-.02-.23-.06-.34l.25-.07c.03.07.05.13.05.22.08-.07.13-.1.19-.14.08-.05.18-.07.27-.07.15,0,.29.08.34.2.02.05.04.11.04.18v1.07h-.27Z"/>
        <path class="cls-4" d="m151.87,43.45c-.07.2-.15.35-.25.43-.07.06-.17.1-.27.12l-.08-.17c.1-.03.18-.07.25-.16.05-.06.06-.08.1-.23,0,0-.17-.34-.23-.51l-.33-.93.27-.06.28.89c.03.09.1.33.08.33h.02c.02-.1.06-.22.1-.35l.26-.84h.3l-.51,1.46Z"/>
      </g>
      <g>
        <path class="cls-1" d="m167.26,27.93h-39.44v9.62c0,2.68,2.69,2.71,2.81,2.71h39.13v-9.5c0-2.75-2.48-2.82-2.51-2.82Z"/>
        <g>
          <g>
            <path class="cls-2" d="m167.78,34.82c.57-.86.93-1.56,1.38-2.96.05-.16.52-1.68-.2-2.67-.61-.84-1.5-.92-2.09-.92h-30.98c-1.5.63-4.14,2.09-6.13,5.11-.57.86-.93,1.56-1.38,2.96-.05.16-.5,1.59.19,2.56.57.8,1.56,1,2.02,1h31.12c1.51-.64,4.11-2.11,6.07-5.08Z"/>
            <g>
              <path class="cls-2" d="m134.29,28.27h-6.1v4.16c1.35-1.52,3.31-3.12,6.1-4.16Z"/>
              <path class="cls-2" d="m163.27,39.9h6.08v-4.19c-1.34,1.52-3.29,3.13-6.08,4.19Z"/>
            </g>
          </g>
          <g>
            <path class="cls-1" d="m137.39,36.87h-.85l-1.91-5.59h1.17l1.16,3.65,1.16-3.65h1.18l-1.92,5.59Z"/>
            <path class="cls-1" d="m143.11,36.31c-.41.39-.9.61-1.56.61s-1.16-.22-1.57-.61c-.59-.57-.57-1.27-.57-2.23s-.02-1.67.57-2.23c.41-.39.91-.61,1.57-.61s1.15.22,1.56.61c.59.57.58,1.27.58,2.23s0,1.67-.58,2.23Zm-.84-3.8c-.16-.18-.41-.3-.72-.3s-.57.12-.73.3c-.22.24-.28.49-.28,1.57s.06,1.34.28,1.57c.16.18.42.3.73.3s.56-.12.72-.3c.22-.24.28-.5.28-1.57s-.07-1.34-.28-1.57Z"/>
            <path class="cls-1" d="m144.51,36.87v-5.6h1.13v4.62h2.63v.97h-3.76Z"/>
            <path class="cls-1" d="m151.27,34.77h-1.11v2.11h-1.13v-5.59h2.24c1.19,0,1.91.79,1.91,1.74,0,.95-.72,1.74-1.91,1.74Zm-.06-2.51h-1.06v1.53h1.06c.51,0,.84-.31.84-.76s-.33-.77-.84-.77Z"/>
            <path class="cls-1" d="m156.69,36.87l-.34-.99h-2.06l-.35.99h-1.18l2.11-5.59h.89l2.11,5.59h-1.18Zm-1.35-3.95l-.73,2.04h1.44l-.71-2.04Z"/>
            <path class="cls-1" d="m161.78,36.87l-1.49-2.55-.75.86v1.68h-1.13v-5.6h1.13v2.44l2.04-2.44h1.37l-1.92,2.22,2.06,3.37h-1.32Z"/>
          </g>
        </g>
      </g>
    </g>
  </g>
</svg>