<svg viewBox="0 0 285 40" xmlns="http://www.w3.org/2000/svg">
  <g fill-rule="nonzero" fill="none">
    <path fill="#1D1D1B" d="M140.493 5.906h9.632v33.629h4.941V5.892h9.625l1.823-4.734H138.67zM55.56 1.158h4.898v38.377H55.56zM96.532 10.64a10.275 10.275 0 0 0-3.854-6.714 13.443 13.443 0 0 0-8.137-2.86c-3.855-.094-13.293 0-13.379 0v38.462h4.912V24.62h7.88a15.881 15.881 0 0 0 5.284-.936 10.726 10.726 0 0 0 6.743-6.436c.765-2.115.955-4.395.551-6.607Zm-5.363 5.141a6.164 6.164 0 0 1-4.648 3.869c-1.04.235-2.101.367-3.167.393-1.881.064-5.156 0-7.037 0h-.271V5.742h7.608a10.01 10.01 0 0 1 4.412.95 6.17 6.17 0 0 1 3.49 5.078 8.202 8.202 0 0 1-.394 4.011h.007ZM134.852 20.35a14.802 14.802 0 0 1-4.412 10.669 14.866 14.866 0 0 1-21.237 0 14.889 14.889 0 0 1-4.412-10.669 15.125 15.125 0 0 1 4.412-10.768 15.016 15.016 0 0 1 21.237 0 15.016 15.016 0 0 1 4.412 10.768m4.562 0a18.67 18.67 0 0 0-5.72-13.643c-7.75-7.45-20.002-7.45-27.752 0a18.72 18.72 0 0 0-5.72 13.643 18.591 18.591 0 0 0 5.72 13.586c7.72 7.526 20.031 7.526 27.751 0a18.67 18.67 0 0 0 5.72-13.586M203.99 19.671A18.591 18.591 0 0 0 198.327 6.7c-7.75-7.45-20.001-7.45-27.751 0a18.72 18.72 0 0 0-5.72 13.643 18.591 18.591 0 0 0 5.72 13.586c7.72 7.525 20.03 7.525 27.75 0a18.806 18.806 0 0 0 3.44-4.526l-4.14-1.83a15.216 15.216 0 0 1-2.581 3.432 14.866 14.866 0 0 1-21.237 0 14.887 14.887 0 0 1-4.412-10.669v-.672h34.558l.036.007ZM173.815 9.575a15.016 15.016 0 0 1 21.237 0 14.816 14.816 0 0 1 3.675 6.07h-28.602a15.216 15.216 0 0 1 3.69-6.07ZM50.054 1.151C45.614 14.108 39.836 27.015 35.417 40L24.984 12.928c-3.475 9.06-7.05 18.034-10.519 27.072C10.046 27.029 4.405 14.115 0 1.151h4.762a.386.386 0 0 1 .458.315c2.739 8.294 6.879 16.582 9.632 24.877l.164.371L24.984.672 35.038 26.73c.228-.673.429-1.266.622-1.86 2.581-7.8 6.528-15.616 9.13-23.396a.393.393 0 0 1 .451-.329h4.813v.007ZM228.359 35.53c-4 .02-7.833-1.591-10.619-4.461A14.887 14.887 0 0 1 213.33 20.4a15.123 15.123 0 0 1 4.411-10.768c5.474-5.498 14.239-5.907 20.2-.944l1.552-4.147a20.1 20.1 0 0 0-11.133-3.368 19.864 19.864 0 0 0-13.843 5.577 18.72 18.72 0 0 0-5.72 13.643 18.591 18.591 0 0 0 5.72 13.586 19.857 19.857 0 0 0 24.798 2.36l-1.56-4.176a14.666 14.666 0 0 1-9.395 3.368Z"/>
    <path fill="#009AA3" d="m280.393 28.495-1.809-4.784v15.846h1.809zM270.476 39.557h2.931V10.004l-2.931-7.737zM276.911 19.285l-2.252-5.964v26.236h2.252zM282.624 34.394v5.163h1.952zM269.646.057h-.007L269.617 0l-14.951 39.557h14.98z"/>
  </g>
</svg>
