<?xml version="1.0" encoding="utf-8"?>
<!-- Generator: Adobe Illustrator 27.7.0, SVG Export Plug-In . SVG Version: 6.00 Build 0)  -->
<svg version="1.1" id="Livello_1" width="50px" height="50px" xmlns="http://www.w3.org/2000/svg" xmlns:xlink="http://www.w3.org/1999/xlink" x="0px" y="0px"
	 viewBox="0 0 604.84 255" style="enable-background:new 0 0 604.84 255.12;" xml:space="preserve">
<style type="text/css">
	.st0{fill:#73787D;}
	.st1{fill:#FFFFFF;}
	.st2{fill:#D70A32;}
</style>
<g>
	<g>
		<g>
			<g>
				<g>
					<g>
						<g>
							<g>
								<path class="st0" d="M100.98,225.67c-1.08-0.42-1.91-1.29-2.33-2.51c-0.46,0.56-1.92,2.3-4.96,2.3
									c-3.48,0-5.63-1.77-5.63-5.12c0-4.04,3.23-6.21,8.89-6.21c0.41,0,0.76,0,1.22,0.03v-1.15c0-2.06-0.27-3.45-2.72-3.45
									c-1.84,0-3.95,0.92-5.37,1.99l-1.47-2.3c1.71-0.97,3.94-2.3,7.33-2.3c2.54,0,4.39,0.94,5.05,2.79
									c0.28,0.77,0.35,1.35,0.35,3.06c0,1.26-0.15,3.94-0.15,6.48c0,2.41,0.08,3.38,1.43,4.22L100.98,225.67z M97.05,216.3
									c-2.41,0-3.87,0.45-4.57,1.25c-0.66,0.77-0.9,1.39-0.9,2.54c0,1.92,0.97,3.04,2.74,3.04c1.48,0,2.87-0.91,3.67-2.3l0.1-4.46
									C97.59,216.33,97.32,216.3,97.05,216.3z"/>
								<path class="st0" d="M124.2,211.7c-0.94-0.88-1.96-1.39-2.83-1.39c-2.08,0-3.04,1.81-3.04,6c0,2.33,0.32,3.73,0.92,4.49
									c0.48,0.63,1.29,1.01,2.08,1.01c1.08,0,2.06-0.46,3.21-1.47l0.28-0.24l2.12,2.83c-0.69,0.7-1,0.94-1.64,1.32
									c-1.24,0.73-2.64,1.12-4.35,1.12c-4.92,0-7.78-3.42-7.78-9.2c0-4.11,1.57-6.83,3.66-8.26c1.18-0.8,2.92-1.32,4.43-1.32
									c1.19,0,2.48,0.28,3.46,0.8c0.66,0.35,0.98,0.59,1.74,1.25L124.2,211.7z"/>
								<path class="st0" d="M142.46,209.43c1.43,1.67,2.06,3.63,2.06,6.52c0,3.07-0.69,5.16-2.23,6.91
									c-1.37,1.53-3.14,2.47-5.89,2.47c-4.85,0-8.02-3.63-8.02-9.24s3.2-9.34,8.02-9.34
									C138.95,206.75,140.93,207.61,142.46,209.43z M134.07,212c-0.32,0.95-0.49,2.2-0.49,3.98c0,2.06,0.2,3.6,0.59,4.5
									c0.41,0.97,1.46,1.46,2.37,1.46c2.02,0,2.89-1.81,2.89-6.03c0-2.41-0.31-3.98-0.93-4.78c-0.46-0.59-1.18-0.94-2.02-0.94
									C135.35,210.19,134.44,210.89,134.07,212z"/>
								<path class="st0" d="M162.02,222.96c-2.06,1.67-4.22,2.47-6.72,2.47c-5.12,0-8.44-3.62-8.44-9.24
									c0-3.21,0.66-5.34,2.23-7.08c1.47-1.64,3.24-2.41,5.62-2.41c2.05,0,4,0.7,5.15,1.88c1.64,1.67,2.38,4.08,2.38,7.81
									c0,0.38,0,0.77,0,1.08h-10.32v0.14c0,2.76,1.37,4.32,3.75,4.32c1.6,0,3.11-0.59,4.54-1.77L162.02,222.96z M157.39,214.07
									v-0.21c0-1.33-0.15-2.03-0.56-2.69c-0.46-0.69-1.12-1.04-2.06-1.04c-1.79,0-2.8,1.39-2.8,3.87v0.07H157.39z"/>
								<path class="st0" d="M176.49,211.41c-1.77-0.9-3.07-1.29-4.4-1.29c-1.35,0-2.25,0.69-2.25,1.74c0,0.9,0.58,1.4,2.22,1.81
									l2.17,0.56c2.18,0.56,2.92,1.22,3.55,2.03c0.66,0.84,0.97,1.84,0.97,3.03c0,3.7-3.06,6.21-7.62,6.21
									c-2.2,0-4.61-0.69-7.21-2.06l1.66-3.41c1.43,0.87,3.9,2.03,5.93,2.03c1.32,0,2.38-0.87,2.38-2.03c0-1.22-0.88-1.84-2.75-2.2
									l-2.09-0.39c-1.18-0.21-2.65-1.04-3.28-1.81c-0.63-0.77-1.01-2.05-1.01-3.21c0-3.49,2.75-5.82,6.91-5.82
									c2.86,0,4.73,0.87,6.38,1.67L176.49,211.41z"/>
								<path class="st0" d="M187.54,202.17c0,1.6-1.3,2.9-2.89,2.9c-1.57,0-2.87-1.29-2.87-2.9c0-1.6,1.32-2.89,2.94-2.89
									C186.28,199.28,187.54,200.57,187.54,202.17z M186.98,206.67v18.27h-4.68v-17.53L186.98,206.67z"/>
								<path class="st0" d="M193.98,207.75c1.75-0.73,3.25-1.05,4.89-1.05c2.99,0,5.05,1.12,5.75,3.11
									c0.25,0.73,0.35,1.29,0.32,3.2l-0.11,6c0,0.11,0,0.21,0,0.31c0,1.92,0.32,2.66,1.68,3.66l-2.48,2.87
									c-1.08-0.46-2.06-1.26-2.5-2.17c-0.35,0.35-0.74,0.69-1.08,0.94c-0.88,0.63-2.13,0.98-3.59,0.98
									c-3.97,0-6.14-2.02-6.14-5.58c0-4.18,2.89-6.13,8.59-6.13c0.34,0,0.66,0,1.04,0.03v-0.73c0-1.99-0.38-2.65-2.09-2.65
									c-1.49,0-3.24,0.73-5.15,2.02l-1.98-3.35C192.03,208.62,192.73,208.28,193.98,207.75z M200.05,217.13
									c-3.24,0-4.36,0.59-4.36,2.72c0,1.39,0.86,2.33,2.06,2.33c0.86,0,1.74-0.46,2.43-1.22l0.07-3.83H200.05z"/>
								<path class="st0" d="M224.17,225.29c-2.5,0-4.39-0.87-5.62-2.62c-1.14-1.64-1.66-3.66-1.66-6.31c0-3.94,1.24-6.21,2.92-7.71
									c1.3-1.16,2.82-1.78,4.54-1.78c1.88,0,3.41,0.63,4.73,1.86l-1.67,2.2c-1.15-1.01-1.96-1.37-3.06-1.37
									c-1.33,0-2.49,0.7-3.07,1.89c-0.59,1.18-0.84,2.92-0.84,5.33c0,2.44,0.49,4.04,1.4,5.02c0.63,0.66,1.49,1.05,2.51,1.05
									c1.29,0,2.57-0.63,3.62-1.81l1.57,1.99C227.86,224.66,226.4,225.29,224.17,225.29z"/>
								<path class="st0" d="M239.71,225.43c-4.66,0-7.57-3.56-7.57-9.24c0-5.65,2.9-9.2,7.5-9.2c5.16,0,7.68,4.11,7.68,9.38
									C247.33,221.91,244.36,225.43,239.71,225.43z M239.65,209.46c-2.79,0-3.94,2-3.94,6.39c0,5.34,1.37,7.12,4.08,7.12
									c2.43,0,3.94-1.89,3.94-6.45C243.73,211.1,242.16,209.46,239.65,209.46z"/>
								<path class="st0" d="M270.68,224.94v-12.51c0-1.99-0.64-2.68-2.09-2.68c-1.62,0-2.76,1.04-4.08,2.37v12.83h-3.14v-12.45
									c0-1.95-0.56-2.68-2.16-2.68c-1.18,0-2.51,0.59-4.02,2.02v13.11h-3.16v-12.83c0-2.48-0.14-3.14-0.63-4.36l2.99-0.73
									c0.35,0.59,0.6,1.47,0.6,2.43c1.5-1.56,3.27-2.47,4.92-2.47c1.63,0,3.28,0.87,4.14,2.76c1.74-1.85,3.56-2.76,5.34-2.76
									c2.72,0,4.46,1.71,4.46,4.92v13.04H270.68z"/>
								<path class="st0" d="M287.12,225.29c-1.59,0-3.16-0.59-4.53-1.81c0.07,0.56,0.07,1.33,0.07,1.95v6.14l-3.13,0.73v-20.54
									c0-2.05-0.15-3.17-0.39-4.29l3.11-0.52c0.14,0.52,0.2,1.05,0.2,2.5c1.35-1.63,3.11-2.43,4.95-2.43
									c3.56,0,6.55,2.9,6.55,8.89C293.96,221.35,291.59,225.29,287.12,225.29z M286.85,209.75c-1.57,0-3,0.77-4.19,2.16v8.89
									c1.08,1.15,2.45,1.92,3.73,1.92c2.83,0,4.12-2.17,4.12-6.42C290.51,212.15,289.6,209.75,286.85,209.75z"/>
								<path class="st0" d="M310.21,225.67c-1.08-0.42-1.92-1.29-2.33-2.51c-0.45,0.56-1.92,2.3-4.96,2.3
									c-3.48,0-5.64-1.77-5.64-5.12c0-4.04,3.24-6.21,8.9-6.21c0.41,0,0.76,0,1.22,0.03v-1.15c0-2.06-0.28-3.45-2.72-3.45
									c-1.84,0-3.94,0.92-5.37,1.99l-1.47-2.3c1.71-0.97,3.94-2.3,7.33-2.3c2.54,0,4.39,0.94,5.05,2.79
									c0.27,0.77,0.35,1.35,0.35,3.06c0,1.26-0.14,3.94-0.14,6.48c0,2.41,0.06,3.38,1.42,4.22L310.21,225.67z M306.27,216.3
									c-2.4,0-3.87,0.45-4.57,1.25c-0.66,0.77-0.9,1.39-0.9,2.54c0,1.92,0.97,3.04,2.75,3.04c1.46,0,2.86-0.91,3.65-2.3l0.11-4.46
									C306.83,216.33,306.54,216.3,306.27,216.3z"/>
								<path class="st0" d="M325.96,224.94v-11.78c0-1.57-0.14-2.13-0.56-2.68c-0.34-0.46-0.98-0.71-1.78-0.71
									c-1.26,0-3.14,0.98-4.33,2.23v12.94h-3.16v-13c0-2.09-0.18-2.9-0.66-4.15l3.04-0.84c0.41,0.84,0.58,1.6,0.58,2.68
									c1.01-0.84,1.54-1.29,2.26-1.71c1.01-0.59,2.16-0.87,3.25-0.87c1.84,0,3.48,0.98,4.11,2.48c0.27,0.63,0.42,1.39,0.42,2.19
									v13.21H325.96z"/>
								<path class="st0" d="M341.96,225.5c-0.83,2.47-1.74,4.36-2.96,5.37c-0.84,0.71-2.06,1.26-3.24,1.5l-1.01-2.09
									c1.25-0.31,2.16-0.9,3.03-1.98c0.57-0.71,0.91-1.64,1.43-3.42l-1.25,0.18c-0.46-2.06-0.98-3.77-1.67-5.83l-3.88-11.47
									l3.25-0.73L339,218c0.32,1.08,0.77,2.93,1.01,4.11h0.21c0.28-1.18,0.69-2.75,1.18-4.32l3.11-10.32h3.56L341.96,225.5z"/>
							</g>
						</g>
					</g>
				</g>
			</g>
		</g>
	</g>
	<g>
		<path class="st1" d="M525.7,33.82H54.92v118.72c0,33.03,32.17,33.41,33.54,33.41h467.15V68.69
			C555.62,34.77,526.01,33.82,525.7,33.82z"/>
		<g>
			<g>
				<g>
					<path class="st2" d="M531.91,118.86c6.78-10.64,11.09-19.29,16.47-36.51c0.6-1.93,6.23-20.74-2.37-32.97
						c-7.29-10.38-17.9-11.33-24.95-11.33H151.22c-17.86,7.76-49.43,25.83-73.14,63.07c-6.77,10.64-11.09,19.29-16.47,36.51
						c-0.6,1.95-5.98,19.68,2.24,31.65c6.76,9.85,18.57,12.36,24.07,12.36h371.54C477.44,173.69,508.51,155.61,531.91,118.86z"/>
					<g>
						<path class="st2" d="M132.03,38.05H59.25v51.41C75.31,70.75,98.78,50.97,132.03,38.05z"/>
						<path class="st2" d="M478.07,181.63h72.56v-51.75C534.68,148.62,511.3,168.55,478.07,181.63z"/>
					</g>
				</g>
				<g>
					<g>
						<g>
							<path class="st1" d="M169.12,144.23h-10.09l-22.8-69.08h13.97l13.87,45.02l13.87-45.02h14.07L169.12,144.23z"/>
							<path class="st1" d="M237.33,137.24c-4.85,4.85-10.77,7.57-18.63,7.57c-7.86,0-13.87-2.72-18.72-7.57
								c-6.99-6.99-6.79-15.62-6.79-27.55c0-11.93-0.19-20.57,6.79-27.56c4.85-4.85,10.87-7.57,18.72-7.57
								c7.86,0,13.78,2.71,18.63,7.57c6.99,6.99,6.89,15.62,6.89,27.56C244.22,121.62,244.31,130.25,237.33,137.24z M227.33,90.28
								c-1.94-2.24-4.94-3.69-8.64-3.69c-3.68,0-6.79,1.46-8.73,3.69c-2.62,2.91-3.3,6.11-3.3,19.4c0,13.29,0.68,16.5,3.3,19.41
								c1.94,2.23,5.05,3.68,8.73,3.68c3.69,0,6.7-1.45,8.64-3.68c2.62-2.91,3.4-6.12,3.4-19.41
								C230.73,96.39,229.95,93.19,227.33,90.28z"/>
							<path class="st1" d="M254.11,144.23V75.14h13.49v57.05h31.34v12.03H254.11z"/>
							<path class="st1" d="M334.74,118.22h-13.29v26h-13.49V75.14h26.78c14.26,0,22.8,9.8,22.8,21.54
								C357.54,108.42,349,118.22,334.74,118.22z M334.06,87.18h-12.62v18.92h12.62c6.11,0,9.99-3.78,9.99-9.41
								C344.05,91.06,340.17,87.18,334.06,87.18z"/>
							<path class="st1" d="M399.45,144.23L395.37,132h-24.55l-4.17,12.22h-14.07l25.13-69.08h10.58l25.23,69.08H399.45z
								 M383.35,95.52l-8.74,25.13h17.17L383.35,95.52z"/>
							<path class="st1" d="M460.28,144.23l-17.75-31.43l-8.93,10.67v20.76h-13.48V75.14h13.48v30.08l24.36-30.08h16.39l-22.9,27.46
								L476,144.23H460.28z"/>
						</g>
					</g>
				</g>
			</g>
		</g>
	</g>
</g>
</svg>
